<svg width="1280" height="800" viewBox="0 0 1280 800" xmlns="http://www.w3.org/2000/svg" font-family="-apple-system, BlinkMacSystemFont, 'Segoe UI', Roboto, sans-serif">
  <defs>
    <linearGradient id="bg" x1="0" y1="0" x2="1" y2="1">
      <stop offset="0" stop-color="#eef0ff"/>
      <stop offset="1" stop-color="#ffffff"/>
    </linearGradient>
    <linearGradient id="brand" x1="0" y1="0" x2="1" y2="1">
      <stop offset="0" stop-color="#6366f1"/>
      <stop offset="1" stop-color="#8b5cf6"/>
    </linearGradient>
    <linearGradient id="prog" x1="0" y1="0" x2="1" y2="0">
      <stop offset="0" stop-color="#6366f1"/>
      <stop offset="1" stop-color="#8b5cf6"/>
    </linearGradient>
    <filter id="shadow" x="-20%" y="-20%" width="140%" height="140%">
      <feDropShadow dx="0" dy="10" stdDeviation="22" flood-color="#312e81" flood-opacity="0.18"/>
    </filter>
  </defs>

  <rect width="1280" height="800" fill="url(#bg)"/>
  <circle cx="1120" cy="120" r="220" fill="#8b5cf6" opacity="0.06"/>
  <circle cx="180" cy="720" r="180" fill="#6366f1" opacity="0.05"/>

  <!-- ==== SOL: tanitim ==== -->
  <rect x="90" y="96" width="64" height="64" rx="17" fill="url(#brand)"/>
  <circle cx="122" cy="128" r="19" fill="none" stroke="#ffffff" stroke-width="4.5"/>
  <path d="M122 128 L122 117 M122 128 L131 128" stroke="#ffffff" stroke-width="4.5" stroke-linecap="round"/>

  <text x="176" y="128" font-size="40" font-weight="800" fill="#1a1d29">Jira Quick Worklog</text>
  <text x="176" y="156" font-size="18" font-weight="600" fill="#6366f1">Worklog girmek hiç bu kadar kolay olmamıştı</text>

  <text x="92" y="232" font-size="21" fill="#4b5563">Geliştiriciler worklog girmeyi sevmez.</text>
  <text x="92" y="262" font-size="21" fill="#4b5563">Bu eklenti o derdi bitiriyor: işin yanındaki</text>
  <text x="92" y="292" font-size="21" fill="#4b5563">çipe dokun, saniyeler içinde girildi.</text>

  <!-- ozellikler -->
  <g font-size="20" fill="#1f2430">
    <circle cx="106" cy="360" r="15" fill="url(#brand)"/><path d="M99 360 l5 5 l9 -10" stroke="#fff" stroke-width="3" fill="none" stroke-linecap="round" stroke-linejoin="round"/>
    <text x="134" y="367" font-weight="600">Tek tıkla süre gir — 15dk · 30dk · 1sa · 2sa · 4sa</text>

    <circle cx="106" cy="416" r="15" fill="url(#brand)"/><path d="M99 416 l5 5 l9 -10" stroke="#fff" stroke-width="3" fill="none" stroke-linecap="round" stroke-linejoin="round"/>
    <text x="134" y="423" font-weight="600">“Kalan” çipiyle günü tek hamlede kapat</text>

    <circle cx="106" cy="472" r="15" fill="url(#brand)"/><path d="M99 472 l5 5 l9 -10" stroke="#fff" stroke-width="3" fill="none" stroke-linecap="round" stroke-linejoin="round"/>
    <text x="134" y="479" font-weight="600">Çoklu hesap — aralarında anında geçiş</text>

    <circle cx="106" cy="528" r="15" fill="url(#brand)"/><path d="M99 528 l5 5 l9 -10" stroke="#fff" stroke-width="3" fill="none" stroke-linecap="round" stroke-linejoin="round"/>
    <text x="134" y="535" font-weight="600">Günlük hedef çubuğu · geri al · favori işler</text>
  </g>

  <rect x="92" y="590" width="470" height="44" rx="12" fill="#ffffff" stroke="#e5e7eb"/>
  <text x="116" y="618" font-size="16" fill="#6b7280">🔒 Token yalnızca cihazında kalır — hiçbir yere gönderilmez</text>

  <!-- ==== SAG: popup mockup (translate) ==== -->
  <g transform="translate(760,150)">
    <rect x="2" y="2" width="416" height="412" rx="18" fill="#ffffff" stroke="#e9eaf0" stroke-width="1.5" filter="url(#shadow)"/>
    <rect x="16" y="16" width="20" height="20" rx="6" fill="url(#brand)"/>
    <circle cx="26" cy="26" r="6.2" fill="none" stroke="#ffffff" stroke-width="1.6"/>
    <path d="M26 26 L26 22.5 M26 26 L29 26" stroke="#ffffff" stroke-width="1.6" stroke-linecap="round"/>
    <text x="44" y="30" font-size="14" font-weight="700" fill="#1a1d29">Quick Worklog</text>
    <text x="372" y="30" font-size="11" fill="#6b7280" text-anchor="end">Kadir Top</text>
    <text x="392" y="31" font-size="15" fill="#9aa1b1" text-anchor="middle">⚙</text>
    <line x1="16" y1="48" x2="404" y2="48" stroke="#e9eaf0"/>
    <text x="58" y="71" font-size="18" fill="#9aa1b1">‹</text>
    <text x="210" y="70" font-size="14" font-weight="600" fill="#1a1d29" text-anchor="middle">Bugün · 1 Temmuz Salı</text>
    <text x="360" y="71" font-size="18" fill="#9aa1b1">›</text>
    <rect x="16" y="86" width="388" height="9" rx="4.5" fill="#f6f7fb"/>
    <rect x="16" y="86" width="233" height="9" rx="4.5" fill="url(#prog)"/>
    <text x="16" y="115" font-size="12" font-weight="700" fill="#1a1d29">5sa girildi</text>
    <text x="404" y="115" font-size="12" fill="#6b7280" text-anchor="end">Hedefe 3sa kaldı</text>
    <rect x="16" y="126" width="388" height="34" rx="10" fill="#f6f7fb" stroke="#d7d9e3"/>
    <text x="30" y="148" font-size="12.5" fill="#9aa1b1">İş ara (anahtar veya metin)…</text>

    <rect x="16" y="172" width="388" height="82" rx="12" fill="#ffffff" stroke="#e9eaf0"/>
    <text x="30" y="197" font-size="14" fill="#f5b400">★</text>
    <text x="48" y="197" font-size="12" font-weight="700" fill="#6366f1">DEV-142</text>
    <text x="106" y="197" font-size="12.5" fill="#1a1d29">Checkout flow refactor</text>
    <rect x="350" y="186" width="42" height="16" rx="8" fill="#e9f7ef"/>
    <text x="371" y="198" font-size="10.5" font-weight="700" fill="#16a34a" text-anchor="middle">2sa</text>
    <g>
      <rect x="30" y="218" width="38" height="22" rx="7" fill="#f1f2f7" stroke="#d7d9e3"/><text x="49" y="233" font-size="11" font-weight="600" fill="#1a1d29" text-anchor="middle">15dk</text>
      <rect x="74" y="218" width="38" height="22" rx="7" fill="#f1f2f7" stroke="#d7d9e3"/><text x="93" y="233" font-size="11" font-weight="600" fill="#1a1d29" text-anchor="middle">30dk</text>
      <rect x="118" y="218" width="32" height="22" rx="7" fill="#f1f2f7" stroke="#d7d9e3"/><text x="134" y="233" font-size="11" font-weight="600" fill="#1a1d29" text-anchor="middle">1sa</text>
      <rect x="156" y="218" width="32" height="22" rx="7" fill="#f1f2f7" stroke="#d7d9e3"/><text x="172" y="233" font-size="11" font-weight="600" fill="#1a1d29" text-anchor="middle">2sa</text>
      <rect x="194" y="218" width="32" height="22" rx="7" fill="#f1f2f7" stroke="#d7d9e3"/><text x="210" y="233" font-size="11" font-weight="600" fill="#1a1d29" text-anchor="middle">4sa</text>
      <rect x="232" y="218" width="74" height="22" rx="7" fill="#eef0ff" stroke="#6366f1"/><text x="269" y="233" font-size="11" font-weight="600" fill="#6366f1" text-anchor="middle">Kalan 3sa</text>
      <rect x="312" y="218" width="26" height="22" rx="7" fill="#f1f2f7" stroke="#d7d9e3"/><text x="325" y="232" font-size="11" font-weight="700" fill="#6b7280" text-anchor="middle">⋯</text>
    </g>

    <rect x="16" y="262" width="388" height="82" rx="12" fill="#ffffff" stroke="#e9eaf0"/>
    <text x="30" y="287" font-size="14" fill="#9aa1b1">☆</text>
    <text x="48" y="287" font-size="12" font-weight="700" fill="#6366f1">WEB-88</text>
    <text x="100" y="287" font-size="12.5" fill="#1a1d29">Fix login redirect bug</text>
    <g>
      <rect x="30" y="308" width="38" height="22" rx="7" fill="#f1f2f7" stroke="#d7d9e3"/><text x="49" y="323" font-size="11" font-weight="600" fill="#1a1d29" text-anchor="middle">15dk</text>
      <rect x="74" y="308" width="38" height="22" rx="7" fill="#f1f2f7" stroke="#d7d9e3"/><text x="93" y="323" font-size="11" font-weight="600" fill="#1a1d29" text-anchor="middle">30dk</text>
      <rect x="118" y="308" width="32" height="22" rx="7" fill="#f1f2f7" stroke="#d7d9e3"/><text x="134" y="323" font-size="11" font-weight="600" fill="#1a1d29" text-anchor="middle">1sa</text>
      <rect x="156" y="308" width="32" height="22" rx="7" fill="#f1f2f7" stroke="#d7d9e3"/><text x="172" y="323" font-size="11" font-weight="600" fill="#1a1d29" text-anchor="middle">2sa</text>
      <rect x="194" y="308" width="32" height="22" rx="7" fill="#f1f2f7" stroke="#d7d9e3"/><text x="210" y="323" font-size="11" font-weight="600" fill="#1a1d29" text-anchor="middle">4sa</text>
      <rect x="232" y="308" width="74" height="22" rx="7" fill="#eef0ff" stroke="#6366f1"/><text x="269" y="323" font-size="11" font-weight="600" fill="#6366f1" text-anchor="middle">Kalan 3sa</text>
      <rect x="312" y="308" width="26" height="22" rx="7" fill="#f1f2f7" stroke="#d7d9e3"/><text x="325" y="322" font-size="11" font-weight="700" fill="#6b7280" text-anchor="middle">⋯</text>
    </g>

    <line x1="16" y1="360" x2="404" y2="360" stroke="#e9eaf0"/>
    <text x="24" y="384" font-size="13" font-weight="600" fill="#1a1d29">Bu günün kayıtları (3)</text>
    <text x="396" y="384" font-size="12" fill="#9aa1b1" text-anchor="end">▾</text>
  </g>
</svg>
